# xmcd
#
# Track frame offsets:
#	182
#	10815
#	22020
#	34247
#	47162
#	63262
#	72832
#	83077
#	93702
#	103242
#	118607
#	129195
#	141670
#	154547
#	169537
#	179777
#	189275
#	199492
#	212012
#	227877
#
# Disc length: 3167
#
# Revision: 1
# Processed by: cddbd v1.5.1PL0 Copyright (c) Steve Scherf et al.
# Submitted via: VisiTrax 2.9.5.180 - For more info visit www.synapsa.com
# Normalized: r0:DSETVAR1
#
DISCID=200c5d14
DTITLE=Various Artist - Kings and Queens of country
DYEAR=1900
DGENRE=
TTITLE0=Johnny Russell - Act naturally
TTITLE1=Jo Anne Houston - The race is on
TTITLE2=Del Shannon - She thinks I still care
TTITLE3=Wanda Jackson - Raining in my heart
TTITLE4=Don Gibson - Green green grass of home
TTITLE5=Lynn Anderson - Snowbird
TTITLE6=Johnny Paycheck - A 11
TTITLE7=Dolly Parton - It wasn't god who made honky tonk angels
TTITLE8=Skeeter Davis - Am I that easy to forget
TTITLE9=Kenny Rogers - Gor the good times
TTITLE10=Patsy Cline - Honky tonk merry go round
TTITLE11=Jo Anne Houston - Blue blue day
TTITLE12=Faron Young - Apartment no. 9
TTITLE13=Willie Nelson - Face of a fighter
TTITLE14=Anne Murray - Some birds
TTITLE15=George Jones - Lonely street
TTITLE16=Billie Jo Spears - It makes no different
TTITLE17=Don Williams - Coming apart
TTITLE18=Jeannie C Riley - The cotton Patch
TTITLE19=Stonewall Jackson - Shake 'em up and roll 'em
EXTD=
EXTT0=
EXTT1=
EXTT2=
EXTT3=
EXTT4=
EXTT5=
EXTT6=
EXTT7=
EXTT8=
EXTT9=
EXTT10=
EXTT11=
EXTT12=
EXTT13=
EXTT14=
EXTT15=
EXTT16=
EXTT17=
EXTT18=
EXTT19=
PLAYORDER=
